<svg width="14" height="14" viewBox="0 0 14 14" fill="none" xmlns="http://www.w3.org/2000/svg">
<path d="M4.2 2.3328V3.26546H13.0667V5.1117L12.0312 8.39512H3.90635L2.73968 0H0V0.932665H1.92698L3.09365 9.32779H12.7157L14 5.25516V2.3328H4.2ZM4.69537 10.2693C4.20047 10.2699 3.726 10.4666 3.37606 10.8163C3.02611 11.166 2.82926 11.6401 2.8287 12.1347C2.8287 12.6294 3.02537 13.1038 3.37543 13.4537C3.7255 13.8035 4.2003 14 4.69537 14C5.19044 14 5.66523 13.8035 6.0153 13.4537C6.36537 13.1038 6.56203 12.6294 6.56203 12.1347C6.56149 11.6401 6.36465 11.166 6.0147 10.8163C5.66475 10.4666 5.19027 10.2699 4.69537 10.2693ZM4.69537 13.0673C4.51077 13.0673 4.33032 13.0126 4.17683 12.9102C4.02335 12.8077 3.90372 12.662 3.83308 12.4916C3.76244 12.3212 3.74395 12.1336 3.77997 11.9527C3.81598 11.7718 3.90487 11.6056 4.0354 11.4752C4.16593 11.3447 4.33223 11.2559 4.51328 11.2199C4.69433 11.1839 4.88199 11.2024 5.05254 11.273C5.22308 11.3436 5.36885 11.4631 5.47141 11.6165C5.57396 11.7699 5.6287 11.9502 5.6287 12.1347C5.62839 12.3819 5.52996 12.619 5.35499 12.7938C5.18003 12.9687 4.94281 13.067 4.69537 13.0673ZM11.2287 10.2693C10.7338 10.2699 10.2593 10.4666 9.90939 10.8163C9.55944 11.166 9.3626 11.6401 9.36203 12.1347C9.36203 12.6294 9.5587 13.1038 9.90877 13.4537C10.2588 13.8035 10.7336 14 11.2287 14C11.7238 14 12.1986 13.8035 12.5486 13.4537C12.8987 13.1038 13.0954 12.6294 13.0954 12.1347C13.0948 11.6401 12.898 11.166 12.548 10.8163C12.1981 10.4666 11.7236 10.2699 11.2287 10.2693ZM11.2287 13.0673C11.0441 13.0673 10.8637 13.0126 10.7102 12.9102C10.5567 12.8077 10.4371 12.662 10.3664 12.4916C10.2958 12.3212 10.2773 12.1336 10.3133 11.9527C10.3493 11.7718 10.4382 11.6056 10.5687 11.4752C10.6993 11.3447 10.8656 11.2559 11.0466 11.2199C11.2277 11.1839 11.4153 11.2024 11.5859 11.273C11.7564 11.3436 11.9022 11.4631 12.0047 11.6165C12.1073 11.7699 12.162 11.9502 12.162 12.1347C12.1617 12.3819 12.0633 12.619 11.8883 12.7938C11.7134 12.9687 11.4761 13.067 11.2287 13.0673Z" fill="#333333"/>
</svg>
