<svg width="18" height="18" viewBox="0 0 18 18" fill="none" xmlns="http://www.w3.org/2000/svg">
<path d="M5.4 2.99931V4.19845H16.8V6.57219L15.4688 10.7937H5.02245L3.52245 0H0V1.19914H2.47755L3.97755 11.9929H16.3488L18 6.75663V2.99931H5.4ZM6.0369 13.2034C5.4006 13.2042 4.79057 13.4571 4.34064 13.9067C3.89071 14.3563 3.63762 14.9659 3.6369 15.6017C3.6369 16.2378 3.88976 16.8478 4.33984 17.2976C4.78993 17.7473 5.40038 18 6.0369 18C6.67342 18 7.28387 17.7473 7.73396 17.2976C8.18404 16.8478 8.4369 16.2378 8.4369 15.6017C8.4362 14.9659 8.18313 14.3563 7.73319 13.9066C7.28325 13.457 6.67321 13.2041 6.0369 13.2034ZM6.0369 16.8009C5.79956 16.8009 5.56755 16.7305 5.37022 16.5988C5.17288 16.467 5.01907 16.2797 4.92825 16.0606C4.83742 15.8415 4.81366 15.6004 4.85996 15.3678C4.90626 15.1352 5.02055 14.9215 5.18837 14.7538C5.35619 14.5861 5.57001 14.4719 5.80279 14.4256C6.03557 14.3794 6.27685 14.4031 6.49612 14.4939C6.71539 14.5846 6.90281 14.7383 7.03466 14.9355C7.16652 15.1327 7.2369 15.3646 7.2369 15.6017C7.2365 15.9196 7.10995 16.2244 6.88499 16.4492C6.66003 16.674 6.35504 16.8005 6.0369 16.8009ZM14.4369 13.2034C13.8006 13.2042 13.1906 13.4571 12.7406 13.9067C12.2907 14.3563 12.0376 14.9659 12.0369 15.6017C12.0369 16.2378 12.2898 16.8478 12.7398 17.2976C13.1899 17.7473 13.8004 18 14.4369 18C15.0734 18 15.6839 17.7473 16.134 17.2976C16.584 16.8478 16.8369 16.2378 16.8369 15.6017C16.8362 14.9659 16.5831 14.3563 16.1332 13.9066C15.6833 13.457 15.0732 13.2041 14.4369 13.2034ZM14.4369 16.8009C14.1996 16.8009 13.9676 16.7305 13.7702 16.5988C13.5729 16.467 13.4191 16.2797 13.3282 16.0606C13.2374 15.8415 13.2137 15.6004 13.26 15.3678C13.3063 15.1352 13.4206 14.9215 13.5884 14.7538C13.7562 14.5861 13.97 14.4719 14.2028 14.4256C14.4356 14.3794 14.6768 14.4031 14.8961 14.4939C15.1154 14.5846 15.3028 14.7383 15.4347 14.9355C15.5665 15.1327 15.6369 15.3646 15.6369 15.6017C15.6365 15.9196 15.5099 16.2244 15.285 16.4492C15.06 16.674 14.755 16.8005 14.4369 16.8009Z" fill="white"/>
</svg>
